<svg width="4031" height="2310" viewBox="0 0 4031 2310" fill="none" xmlns="http://www.w3.org/2000/svg">
<rect x="832" y="1045" width="2013" height="388" fill="#BEF264"/>
<path d="M2992 521.733C2991.6 522.133 2968.27 523.067 2940 523.867C2911.73 524.667 2872.13 525.867 2852 526.667C2831.87 527.333 2786.53 528.933 2751.33 530C2716.13 531.067 2677.73 532.667 2666 533.333C2637.07 535.067 2617.47 535.733 2527.33 538.267C2459.6 540.267 2342.93 540.667 1589.2 541.2C862.4 541.867 728 542.267 726.267 543.867C724.4 545.333 724 548.267 724 559.867C724 575.6 723.2 577.333 716.667 577.333C714.533 577.333 711.733 578 710.667 578.667C708.4 580 708.4 577.333 710.667 635.333C711.333 655.067 712.533 689.867 713.333 712.667C714.933 766.8 716.933 822.267 718.667 862C722.133 945.6 722.8 964.8 724.667 1041.33C725.733 1086.4 727.2 1147.6 728 1177.33C728.8 1207.07 730 1257.73 730.667 1290C731.333 1322.27 732.533 1377.47 733.2 1412.67C734 1447.87 734.933 1481.07 735.467 1486.4C736.133 1495.07 736.667 1496.4 739.467 1497.6C743.2 1499.33 743.867 1501.47 744.267 1513.33L744.667 1522H779.333C828.533 1521.87 945.333 1518.53 1086.67 1513.33C1153.73 1510.8 1211.87 1509.33 1243.33 1509.33C1260.27 1509.33 1290.27 1508.8 1310 1508C1329.87 1507.33 1374.53 1506.13 1409.33 1505.33C1492.13 1503.6 1646.93 1500.27 1720 1498.67C1751.87 1497.87 1823.87 1496.67 1880 1496C1936.13 1495.2 2003.87 1494 2030.67 1493.2C2057.47 1492.4 2109.07 1491.33 2145.33 1490.67C2181.6 1490 2223.33 1489.2 2238 1488.8C2272.93 1487.73 2372.13 1485.6 2460.67 1484C2534.93 1482.67 2615.87 1480.93 2704 1478.67C2732.93 1478 2788.8 1476.67 2828 1475.87L2899.33 1474.4L2907.2 1466.27C2911.47 1461.73 2940.4 1432.27 2971.47 1400.93C3004.13 1368 3030.27 1340.4 3033.6 1335.6C3036.67 1331.07 3040.53 1325.6 3042.4 1323.47L3045.6 1319.47L3044.8 1288.8C3044.27 1271.87 3043.6 1252.53 3043.33 1246C3042.93 1239.33 3042.13 1216.27 3041.33 1194.67C3038 1093.47 3035.6 1030.27 3033.33 983.333C3032.53 968.267 3032 866.8 3032 750.533C3032 586.133 3031.6 544 3030.27 542.933C3029.33 542.133 3026.27 541.333 3023.33 541.067L3018 540.667L3017.33 531.333L3016.67 522L3004.67 521.6C2998 521.467 2992.27 521.467 2992 521.733ZM2509.47 666C2523.73 668.933 2540.8 674.933 2549.6 680.133C2582.27 699.467 2605.47 732.267 2612.13 768.4C2614 778.667 2613.33 779.867 2606 780C2603.87 780.133 2586.4 782.4 2567.33 785.2C2542.93 788.667 2532.4 789.867 2531.6 788.8C2531.07 788 2530 784.933 2529.33 782C2521.33 751.467 2501.33 736 2470.13 736C2453.47 736.133 2436.8 741.6 2424.93 750.933C2417.87 756.667 2406.53 774.267 2402 786.667C2396.53 802 2394.67 827.2 2397.73 848.133C2400.4 866 2404.27 876.533 2412.8 888.8C2419.87 898.933 2425.87 904.267 2436 909.333C2457.73 920.267 2487.47 920 2505.07 908.8C2517.73 900.667 2528.53 883.733 2530.27 869.467C2530.67 865.733 2531.47 862.267 2532 862C2532.53 861.6 2547.33 863.2 2564.8 865.467C2606.53 870.667 2613.47 871.733 2614.27 872.533C2614.67 872.933 2613.47 880.267 2611.6 888.933C2602.4 930.4 2575.73 962.267 2535.33 979.867C2519.33 986.933 2501.2 990.533 2477.33 991.6C2437.73 993.2 2405.33 985.067 2376.4 966.4C2335.33 939.733 2313.47 900.533 2307.73 843.067C2304.93 814.533 2310.67 778 2321.87 752C2338.4 713.733 2376.67 680.133 2416 669.2C2431.33 664.933 2439.2 663.733 2457.33 662.8C2476.93 661.867 2494.13 662.933 2509.47 666ZM1093.73 669.733C1095.07 670.267 1095.47 673.067 1095.2 680.933C1095.07 686.667 1094.93 701.867 1094.8 714.8L1094.67 738.133L1032.4 738.4C998 738.533 965.6 738.667 960.4 738.667H950.667V768V797.333L1016.4 797.6L1082 798L1082.4 831.6L1082.67 865.333L1078.4 865.467C1076 865.6 1047.87 865.733 1016 866C984.133 866.133 956.4 866.4 954.4 866.533L950.667 866.667V926V985.333H908H865.333V827.467V669.467L868.4 669.067C873.467 668.4 1091.87 668.933 1093.73 669.733ZM1222.53 670.133C1222.93 670.4 1223.07 733.2 1222.93 809.733C1222.8 886.133 1222.67 956.933 1222.67 967.067V985.333L1180.4 985.067L1138 984.667L1137.6 827.467C1137.47 734.533 1137.87 669.867 1138.53 669.467C1139.87 668.533 1221.73 669.2 1222.53 670.133ZM1366.93 671.333C1367.6 672.4 1377.47 687.2 1388.93 704.267C1400.4 721.333 1424.27 756.933 1442 783.333C1480 840 1485.47 847.867 1486.93 848.8C1487.47 849.2 1488 808.933 1488 759.467V669.333L1494.4 669.2C1504.27 669.067 1555.87 669.067 1563.6 669.2L1570.67 669.333V827.333V985.333H1529.6H1488.53L1471.87 960.933C1462.67 947.6 1448.13 926.133 1439.47 913.333C1430.93 900.533 1413.47 874.8 1400.93 856.4C1388.27 837.867 1374.4 817.333 1370 810.8C1365.6 804.267 1361.6 798.8 1361.07 798.8C1360.4 798.667 1360 840.667 1360 892V985.333H1318.67H1277.33L1277.6 827.733L1278 670.133L1281.07 669.333C1282.8 668.933 1302.53 668.8 1325.07 668.933C1359.47 669.333 1366 669.6 1366.93 671.333ZM1777.07 669.2L1820 669.333L1822 673.6C1824 678 1830.93 696.667 1842.67 728.667C1849.47 747.2 1859.07 772.267 1873.07 808C1877.73 820.133 1883.87 836.533 1886.67 844.667C1889.33 852.667 1894.67 867.067 1898.4 876.667C1914.53 917.6 1938.67 982.267 1938.67 984.267C1938.67 984.933 1918.67 985.333 1894.13 985.333H1849.73L1840 957.6C1834.67 942.4 1829.6 928.667 1828.53 927.067L1826.8 924.133L1768.53 924.4L1710.27 924.667L1706.27 935.333C1704.13 941.2 1699.2 954.667 1695.47 965.333L1688.53 984.667L1645.6 985.067C1622 985.2 1602.67 984.933 1602.67 984.4C1602.67 982.8 1615.47 946.667 1618.67 939.333C1621.33 933.2 1638.53 887.6 1652.67 849.333C1655.73 840.933 1660.53 828.267 1663.33 821.333C1666 814.4 1673.07 795.733 1678.93 780C1696.93 731.733 1700 723.867 1705.87 708.667C1709.07 700.533 1713.07 689.733 1714.67 684.667C1719.87 668.667 1720.4 668 1727.73 668.533C1731.2 668.8 1753.33 669.067 1777.07 669.2ZM2060.67 670.8C2062.53 672.533 2110.67 743.467 2134.27 778.933C2138.53 785.467 2151.33 804.267 2162.67 820.933L2183.33 851.333L2183.73 760.267L2184 669.333L2206.4 669.2C2246.8 668.933 2263.87 669.067 2265.2 670C2266.8 670.8 2267.33 979.333 2265.87 983.2C2265.2 985.067 2260.53 985.333 2224.67 985.333C2188 985.333 2184.27 985.067 2182.4 982.933C2181.2 981.733 2175.6 973.733 2169.87 965.333C2164.13 956.933 2149.47 935.333 2137.2 917.333C2124.8 899.333 2104.8 869.867 2092.67 851.6C2073.2 822.933 2056.27 798.667 2055.6 798.667C2055.47 798.667 2055.33 840.533 2055.33 891.6V984.667H2014H1972.67L1972.4 828C1972 697.6 1972.27 671.067 1973.87 670C1974.93 669.2 1991.47 668.667 2017.07 668.667C2053.2 668.667 2058.8 668.933 2060.67 670.8ZM2883.73 669.333H2886.67V703.333V737.333H2813.33H2740V764V790.667H2806.67H2873.2L2873.6 822.8C2873.87 840.533 2873.6 855.467 2873.2 856.267C2872.67 857.067 2848.53 857.6 2806.53 857.733L2740.67 858L2740.27 886.933L2740 916H2814.67H2889.33V950.667V985.333H2772H2654.67L2654.93 827.6L2655.33 670L2682 669.333C2701.6 668.8 2837.6 668.8 2883.73 669.333ZM1387.33 1058.53C1425.2 1066.93 1458 1086.8 1480.4 1114.67C1496.13 1134.4 1505.73 1156.8 1511.33 1187.6C1523.87 1255.6 1499.2 1318.8 1446.13 1354.53C1416.27 1374.67 1386.27 1383.07 1343.33 1383.2C1300.4 1383.33 1271.87 1375.6 1241.87 1355.73C1223.47 1343.6 1209.73 1330.4 1199.47 1314.93C1177.2 1281.47 1167.6 1242 1171.73 1201.33C1176.53 1155.73 1199.2 1113.73 1233.2 1087.87C1250.53 1074.67 1283.07 1060.93 1305.33 1057.33C1310.8 1056.53 1316.27 1055.6 1317.33 1055.33C1318.4 1055.07 1332 1055.07 1347.33 1055.33C1369.2 1055.73 1378 1056.4 1387.33 1058.53ZM1751.73 1056.67C1777.07 1060.27 1807.2 1072.67 1827.6 1087.87C1868 1118 1891.47 1171.07 1888.93 1226.67C1887.6 1255.47 1882.53 1275.6 1870.8 1298.13C1848 1342.53 1807.33 1371.47 1755.33 1380.8C1735.07 1384.4 1697.33 1384.13 1677.6 1380.27C1615.6 1368 1573.07 1330.93 1554 1272.8C1547.87 1253.73 1546.13 1239.2 1547.07 1212.4C1548.53 1169.33 1559.6 1139.33 1584.53 1110.53C1603.2 1088.93 1626.13 1074 1655.73 1064C1682.13 1055.2 1720.53 1052.27 1751.73 1056.67ZM1045.6 1063.33C1071.6 1067.87 1092.8 1078.13 1108.67 1094C1126.53 1111.73 1135.33 1133.47 1136.93 1163.33C1138.13 1185.33 1131.2 1208.93 1118.27 1227.07C1111.2 1237.07 1105.47 1242.27 1093.07 1250.27C1088.13 1253.47 1084 1256.8 1084 1257.6C1084 1259.6 1101.2 1291.33 1134.27 1350.53C1141.87 1364 1148 1375.47 1148 1376C1148 1377.33 1075.87 1379.07 1064 1377.87L1053.87 1377.07L1047.6 1364.8C1044.13 1358.13 1031.87 1334.27 1020.4 1311.6L999.6 1270.67H976C955.6 1270.67 952.133 1270.93 951.467 1272.8C951.067 1274 950.667 1298 950.667 1326.13V1377.33L915.733 1377.47C896.4 1377.47 877.333 1377.6 873.333 1377.73L866 1378L865.6 1219.6L865.333 1061.33H949.867C1018.53 1061.33 1036.4 1061.73 1045.6 1063.33ZM2018.67 1125.33C2018.67 1160.53 2019.07 1189.33 2019.73 1189.2C2020.27 1189.2 2025.33 1183.33 2030.93 1176.27C2044.53 1159.2 2066 1133.2 2086.67 1108.53C2095.87 1097.6 2108.4 1082.53 2114.53 1074.93L2125.73 1061.33H2175.6C2202.93 1061.33 2225.33 1061.73 2225.33 1062.13C2225.33 1062.93 2207.6 1083.6 2193.33 1099.33C2189.33 1103.73 2175.47 1119.33 2162.67 1134C2149.87 1148.67 2136.67 1163.6 2133.33 1167.33C2124.53 1176.93 2116 1187.6 2116 1188.67C2116 1189.6 2143.87 1234.8 2156.67 1254.67C2159.73 1259.47 2165.47 1268.4 2169.33 1274.67C2177.47 1287.73 2189.47 1306.67 2208.53 1336.4C2215.87 1348 2224.53 1361.47 2227.73 1366.4C2230.8 1371.33 2233.33 1375.73 2233.33 1376.27C2233.33 1376.93 2211.07 1377.2 2183.73 1377.07L2134.13 1376.67L2125.47 1362.67C2120.8 1354.93 2110.8 1338.8 2103.33 1326.67C2095.87 1314.53 2084.93 1296.8 2079.07 1287.33C2061.2 1258 2058 1253.33 2056.53 1253.33C2055.73 1253.33 2053.07 1255.87 2050.67 1258.93C2045.73 1265.07 2036.93 1275.6 2025.73 1288.4L2018.67 1296.4V1336.8V1377.33L2007.73 1377.47C1996.67 1377.73 1973.6 1377.73 1946.4 1377.47L1932 1377.33V1219.33V1061.33H1975.33H2018.67V1125.33ZM2349.33 1219.33V1377.33L2316.4 1377.47C2270.27 1377.73 2271.73 1377.73 2267.73 1377.47L2264 1377.33V1219.33V1061.33H2306.67H2349.33V1219.33ZM2641.07 1095.6L2640.67 1130L2565.6 1130.4L2490.4 1130.67L2491.2 1155.73C2491.6 1169.47 2491.87 1181.07 2492 1181.6C2492 1182.13 2522.4 1182.8 2559.73 1182.93L2627.33 1183.33L2627.73 1216.93L2628 1250.67H2559.33H2490.67L2490.93 1279.6C2491.33 1304.27 2491.6 1308.67 2493.33 1308.8C2494.4 1308.93 2528.8 1309.07 2569.73 1309.2L2644 1309.33V1343.2V1376.93L2638.4 1377.6C2628.27 1378.53 2406.67 1377.73 2405.6 1376.8C2404.67 1375.73 2404 1088.53 2405.07 1070.93L2405.6 1061.33H2523.47H2641.33L2641.07 1095.6Z" fill="black"/>
<path d="M1764.27 761.333C1761.33 770.533 1757.87 780.933 1756.8 784.667C1755.73 788.267 1749.73 806.133 1743.47 824.267L1732 857.333H1769.33H1806.53L1804.8 851.6C1803.87 848.533 1797.33 828.533 1790.27 807.333C1783.2 786 1775.73 763.2 1773.6 756.667L1769.73 744.667L1764.27 761.333Z" fill="black"/>
<path d="M1326.27 1129.47C1303.2 1132.8 1278.8 1153.07 1268.8 1176.93C1258.27 1202.13 1259.2 1242.67 1270.93 1266C1280.93 1285.87 1298.53 1300.93 1318 1306.27C1329.2 1309.33 1349.87 1309.87 1361.33 1307.47C1396.53 1300 1418.13 1274.27 1422.8 1234.13C1426.93 1199.07 1418 1168.4 1398.53 1150C1379.6 1132.13 1355.2 1125.2 1326.27 1129.47Z" fill="black"/>
<path d="M1698.67 1130C1667.87 1136.93 1644.67 1162.13 1637.87 1196C1635.07 1209.87 1635.87 1238 1639.33 1249.33C1643.47 1262.67 1652.13 1277.47 1661.47 1286.93C1677.33 1303.2 1697.87 1310.4 1723.87 1308.93C1759.2 1307.07 1783.47 1287.07 1794.93 1250.67C1797.6 1241.87 1798 1238 1798 1219.33C1798 1194.53 1796.8 1188.53 1788.53 1171.2C1779.73 1152.53 1764.53 1138.93 1744.4 1131.87C1734.13 1128.13 1710.8 1127.2 1698.67 1130Z" fill="black"/>
<path d="M951.067 1128.8C950 1131.6 951.333 1201.73 952.533 1203.73C953.2 1204.93 961.2 1205.33 981.333 1205.33C1027.2 1205.33 1038.53 1201.6 1046.53 1184C1048.53 1179.6 1049.33 1175.2 1049.33 1167.2C1049.33 1157.73 1048.8 1155.33 1045.2 1148.13C1042 1141.6 1039.47 1138.8 1034 1135.2C1022.8 1127.73 1016.67 1126.67 982.267 1126.67C956 1126.67 951.867 1126.93 951.067 1128.8Z" fill="black"/>
</svg>
